<?xml version="1.0" encoding="UTF-8"?>
<svg xmlns="http://www.w3.org/2000/svg" xmlns:xlink="http://www.w3.org/1999/xlink" width="20" height="20" viewBox="0 0 20 20" version="1.1">
<g id="surface1">
<path fill="#9EA3A8" d="M 10 0 C 4.476562 0 0 4.476562 0 10 C 0 15.523438 4.476562 20 10 20 C 15.523438 20 20 15.523438 20 10 C 20 4.476562 15.523438 0 10 0 Z M 10.058594 17.714844 C 5.804688 17.714844 2.34375 14.253906 2.34375 10 C 2.34375 5.746094 5.804688 2.285156 10.058594 2.285156 C 14.3125 2.285156 17.773438 5.746094 17.773438 10 C 17.773438 14.253906 14.3125 17.714844 10.058594 17.714844 Z M 10.058594 17.714844 "/>
<path fill="#9EA3A8" d="M 16.476562 11.277344 C 16.558594 10.863281 16.601562 10.4375 16.601562 10 C 16.601562 9.394531 16.519531 8.808594 16.363281 8.25 L 15.546875 8.046875 C 11.902344 7.144531 8.097656 7.144531 4.453125 8.046875 L 3.761719 8.21875 C 3.601562 8.785156 3.515625 9.382812 3.515625 10 C 3.515625 10.441406 3.558594 10.871094 3.644531 11.285156 C 6.242188 11.53125 8.289062 13.679688 8.375 16.324219 C 8.910156 16.464844 9.476562 16.542969 10.058594 16.542969 C 10.597656 16.542969 11.121094 16.476562 11.625 16.351562 C 11.695312 13.65625 13.808594 11.464844 16.476562 11.277344 Z M 10 12.734375 C 8.953125 12.734375 8.097656 11.882812 8.097656 10.832031 C 8.097656 9.785156 8.953125 8.933594 10 8.933594 C 11.046875 8.933594 11.902344 9.785156 11.902344 10.832031 C 11.902344 11.882812 11.046875 12.734375 10 12.734375 Z M 10 12.734375 "/>
<path fill="#9EA3A8" d="M 10 10.105469 C 9.597656 10.105469 9.269531 10.433594 9.269531 10.832031 C 9.269531 11.234375 9.597656 11.5625 10 11.5625 C 10.402344 11.5625 10.730469 11.234375 10.730469 10.832031 C 10.730469 10.433594 10.402344 10.105469 10 10.105469 Z M 10 10.105469 "/>
</g>
</svg>
